<svg xmlns="http://www.w3.org/2000/svg" xmlns:xlink="http://www.w3.org/1999/xlink" width="500" zoomAndPan="magnify" viewBox="0 0 375 374.999991" height="500" preserveAspectRatio="xMidYMid meet" version="1.2"><g id="12ad4bd146"><rect x="0" width="375" y="0" height="374.999991" style="fill:#ffffff;fill-opacity:1;stroke:none;"/><rect x="0" width="375" y="0" height="374.999991" style="fill:#ffffff;fill-opacity:1;stroke:none;"/><path style=" stroke:none;fill-rule:evenodd;fill:#292727;fill-opacity:1;" d="M 211.007812 187.5625 L 281.332031 117.234375 C 287.804688 110.765625 287.816406 100.253906 281.34375 93.78125 C 274.882812 87.320312 264.367188 87.308594 257.886719 93.789062 L 187.5625 164.117188 L 117.238281 93.789062 C 110.765625 87.320312 100.257812 87.304688 93.78125 93.78125 C 87.320312 100.242188 87.3125 110.753906 93.792969 117.234375 L 164.117188 187.5625 L 93.792969 257.886719 C 87.320312 264.355469 87.308594 274.867188 93.78125 281.339844 C 100.242188 287.800781 110.757812 287.8125 117.238281 281.332031 L 187.5625 211.007812 L 257.886719 281.332031 C 264.359375 287.800781 274.871094 287.816406 281.34375 281.339844 C 287.804688 274.878906 287.8125 264.367188 281.332031 257.886719 Z M 211.007812 187.5625 "/></g></svg>