<svg xmlns="http://www.w3.org/2000/svg" xmlns:xlink="http://www.w3.org/1999/xlink" width="500" zoomAndPan="magnify" viewBox="0 0 375 374.999991" height="500" preserveAspectRatio="xMidYMid meet" version="1.2"><defs><clipPath id="e6716360c9"><path d="M 38.398438 38.398438 L 150.980469 38.398438 L 150.980469 150.980469 L 38.398438 150.980469 Z M 38.398438 38.398438 "/></clipPath><clipPath id="4ff3a2bcfd"><path d="M 37.5 37.5 L 151.875 37.5 L 151.875 151.875 L 37.5 151.875 Z M 37.5 37.5 "/></clipPath><clipPath id="788916522c"><path d="M 38.398438 224.019531 L 150.980469 224.019531 L 150.980469 336.601562 L 38.398438 336.601562 Z M 38.398438 224.019531 "/></clipPath><clipPath id="a502dc7c1c"><path d="M 37.5 223.117188 L 151.875 223.117188 L 151.875 337.492188 L 37.5 337.492188 Z M 37.5 223.117188 "/></clipPath><clipPath id="68177ca4f2"><path d="M 224.019531 38.398438 L 336.601562 38.398438 L 336.601562 150.980469 L 224.019531 150.980469 Z M 224.019531 38.398438 "/></clipPath><clipPath id="dd275d07f2"><path d="M 223.117188 37.5 L 337.492188 37.5 L 337.492188 151.875 L 223.117188 151.875 Z M 223.117188 37.5 "/></clipPath><clipPath id="e1cac76935"><path d="M 223.117188 223.117188 L 337.867188 223.117188 L 337.867188 337.867188 L 223.117188 337.867188 Z M 223.117188 223.117188 "/></clipPath><clipPath id="6287932b90"><path d="M 224.019531 224.019531 L 250.378906 224.019531 L 250.378906 250.378906 L 224.019531 250.378906 Z M 224.019531 224.019531 "/></clipPath><clipPath id="078144be0f"><path d="M 223.117188 223.117188 L 251.277344 223.117188 L 251.277344 251.277344 L 223.117188 251.277344 Z M 223.117188 223.117188 "/></clipPath><clipPath id="98912d5a03"><path d="M 281.210938 224.019531 L 307.570312 224.019531 L 307.570312 250.378906 L 281.210938 250.378906 Z M 281.210938 224.019531 "/></clipPath><clipPath id="82763a6086"><path d="M 280.308594 223.117188 L 308.46875 223.117188 L 308.46875 251.277344 L 280.308594 251.277344 Z M 280.308594 223.117188 "/></clipPath><clipPath id="0e757caff6"><path d="M 252.179688 252.179688 L 279.410156 252.179688 L 279.410156 279.410156 L 252.179688 279.410156 Z M 252.179688 252.179688 "/></clipPath><clipPath id="846b18a187"><path d="M 251.28125 251.28125 L 280.308594 251.28125 L 280.308594 280.308594 L 251.28125 280.308594 Z M 251.28125 251.28125 "/></clipPath><clipPath id="17d7e978f4"><path d="M 309.371094 253.046875 L 335.730469 253.046875 L 335.730469 279.410156 L 309.371094 279.410156 Z M 309.371094 253.046875 "/></clipPath><clipPath id="a175693c72"><path d="M 308.46875 252.148438 L 336.628906 252.148438 L 336.628906 280.308594 L 308.46875 280.308594 Z M 308.46875 252.148438 "/></clipPath><clipPath id="58a3e90cbb"><path d="M 224.019531 281.210938 L 250.378906 281.210938 L 250.378906 307.570312 L 224.019531 307.570312 Z M 224.019531 281.210938 "/></clipPath><clipPath id="c4b04e7e21"><path d="M 223.117188 280.308594 L 251.277344 280.308594 L 251.277344 308.46875 L 223.117188 308.46875 Z M 223.117188 280.308594 "/></clipPath><clipPath id="f1b3a5d6c3"><path d="M 281.210938 281.210938 L 307.570312 281.210938 L 307.570312 307.570312 L 281.210938 307.570312 Z M 281.210938 281.210938 "/></clipPath><clipPath id="8c06946263"><path d="M 280.308594 280.308594 L 308.46875 280.308594 L 308.46875 308.46875 L 280.308594 308.46875 Z M 280.308594 280.308594 "/></clipPath><clipPath id="4aab1d1784"><path d="M 252.179688 309.371094 L 279.410156 309.371094 L 279.410156 336.601562 L 252.179688 336.601562 Z M 252.179688 309.371094 "/></clipPath><clipPath id="cfea8a2794"><path d="M 251.28125 308.46875 L 280.308594 308.46875 L 280.308594 337.496094 L 251.28125 337.496094 Z M 251.28125 308.46875 "/></clipPath><clipPath id="ce809e96dd"><path d="M 309.371094 310.238281 L 335.730469 310.238281 L 335.730469 336.601562 L 309.371094 336.601562 Z M 309.371094 310.238281 "/></clipPath><clipPath id="561e407e0c"><path d="M 308.46875 309.339844 L 336.628906 309.339844 L 336.628906 337.5 L 308.46875 337.5 Z M 308.46875 309.339844 "/></clipPath></defs><g id="ab1c2c5303"><rect x="0" width="375" y="0" height="374.999991" style="fill:#ffffff;fill-opacity:1;stroke:none;"/><rect x="0" width="375" y="0" height="374.999991" style="fill:#ffffff;fill-opacity:1;stroke:none;"/><g clip-rule="nonzero" clip-path="url(#e6716360c9)"><path style=" stroke:none;fill-rule:nonzero;fill:#ffffff;fill-opacity:1;" d="M 147.789062 37.5 L 41.585938 37.5 C 39.328125 37.5 37.5 39.328125 37.5 41.585938 L 37.5 147.789062 C 37.5 150.054688 39.328125 151.875 41.585938 151.875 L 147.789062 151.875 C 150.046875 151.875 151.875 150.046875 151.875 147.789062 L 151.875 41.585938 C 151.875 39.328125 150.046875 37.5 147.789062 37.5 Z M 147.789062 37.5 "/></g><g clip-rule="nonzero" clip-path="url(#4ff3a2bcfd)"><path style="fill:none;stroke-width:22;stroke-linecap:butt;stroke-linejoin:miter;stroke:#000000;stroke-opacity:1;stroke-miterlimit:4;" d="M -0.00000271667 0.00000328333 L -0.00000271667 152.500013 L 152.500007 152.500013 L 152.500007 0.00000328333 L -0.00000271667 0.00000328333 " transform="matrix(0.75,0,0,0.75,37.500002,37.499998)"/></g><g clip-rule="nonzero" clip-path="url(#788916522c)"><path style=" stroke:none;fill-rule:nonzero;fill:#ffffff;fill-opacity:1;" d="M 147.789062 223.117188 L 41.585938 223.117188 C 39.328125 223.117188 37.5 224.949219 37.5 227.203125 L 37.5 333.410156 C 37.5 335.671875 39.328125 337.492188 41.585938 337.492188 L 147.789062 337.492188 C 150.046875 337.492188 151.875 335.664062 151.875 333.410156 L 151.875 227.203125 C 151.875 224.949219 150.046875 223.117188 147.789062 223.117188 Z M 147.789062 223.117188 "/></g><g clip-rule="nonzero" clip-path="url(#a502dc7c1c)"><path style="fill:none;stroke-width:22;stroke-linecap:butt;stroke-linejoin:miter;stroke:#000000;stroke-opacity:1;stroke-miterlimit:4;" d="M -0.00000271667 -0.00141153 L -0.00000271667 152.498598 L 152.500007 152.498598 L 152.500007 -0.00141153 L -0.00000271667 -0.00141153 " transform="matrix(0.75,0,0,0.75,37.500002,223.118246)"/></g><g clip-rule="nonzero" clip-path="url(#68177ca4f2)"><path style=" stroke:none;fill-rule:nonzero;fill:#ffffff;fill-opacity:1;" d="M 333.410156 37.5 L 227.203125 37.5 C 224.949219 37.5 223.117188 39.328125 223.117188 41.585938 L 223.117188 147.789062 C 223.117188 150.054688 224.949219 151.875 227.203125 151.875 L 333.410156 151.875 C 335.664062 151.875 337.492188 150.046875 337.492188 147.789062 L 337.492188 41.585938 C 337.492188 39.328125 335.664062 37.5 333.410156 37.5 Z M 333.410156 37.5 "/></g><g clip-rule="nonzero" clip-path="url(#dd275d07f2)"><path style="fill:none;stroke-width:22;stroke-linecap:butt;stroke-linejoin:miter;stroke:#000000;stroke-opacity:1;stroke-miterlimit:4;" d="M -0.00143673 0.00000328333 L -0.00143673 152.500013 L 152.498573 152.500013 L 152.498573 0.00000328333 L -0.00143673 0.00000328333 " transform="matrix(0.75,0,0,0.75,223.118265,37.499998)"/></g><g clip-rule="nonzero" clip-path="url(#e1cac76935)"><path style=" stroke:none;fill-rule:nonzero;fill:#ffffff;fill-opacity:1;" d="M 333.410156 223.117188 L 227.203125 223.117188 C 224.949219 223.117188 223.117188 224.949219 223.117188 227.203125 L 223.117188 333.410156 C 223.117188 335.671875 224.949219 337.492188 227.203125 337.492188 L 333.410156 337.492188 C 335.664062 337.492188 337.492188 335.664062 337.492188 333.410156 L 337.492188 227.203125 C 337.492188 224.949219 335.664062 223.117188 333.410156 223.117188 Z M 333.410156 223.117188 "/></g><g clip-rule="nonzero" clip-path="url(#6287932b90)"><path style=" stroke:none;fill-rule:nonzero;fill:#000000;fill-opacity:1;" d="M 250.609375 223.128906 L 224.144531 223.128906 C 223.582031 223.128906 223.128906 223.582031 223.128906 224.144531 L 223.128906 250.609375 C 223.128906 251.171875 223.582031 251.628906 224.144531 251.628906 L 250.609375 251.628906 C 251.171875 251.628906 251.628906 251.171875 251.628906 250.609375 L 251.628906 224.144531 C 251.628906 223.582031 251.171875 223.128906 250.609375 223.128906 Z M 250.609375 223.128906 "/></g><g clip-rule="nonzero" clip-path="url(#078144be0f)"><path style="fill:none;stroke-width:22;stroke-linecap:butt;stroke-linejoin:miter;stroke:#000000;stroke-opacity:1;stroke-miterlimit:4;" d="M -0.00143673 -0.00141153 L -0.00143673 37.545466 L 37.545441 37.545466 L 37.545441 -0.00141153 L -0.00143673 -0.00141153 " transform="matrix(0.75,0,0,0.75,223.118265,223.118246)"/></g><g clip-rule="nonzero" clip-path="url(#98912d5a03)"><path style=" stroke:none;fill-rule:nonzero;fill:#000000;fill-opacity:1;" d="M 307.800781 223.128906 L 281.335938 223.128906 C 280.773438 223.128906 280.316406 223.582031 280.316406 224.144531 L 280.316406 250.609375 C 280.316406 251.171875 280.773438 251.628906 281.335938 251.628906 L 307.800781 251.628906 C 308.363281 251.628906 308.816406 251.171875 308.816406 250.609375 L 308.816406 224.144531 C 308.816406 223.582031 308.363281 223.128906 307.800781 223.128906 Z M 307.800781 223.128906 "/></g><g clip-rule="nonzero" clip-path="url(#82763a6086)"><path style="fill:none;stroke-width:22;stroke-linecap:butt;stroke-linejoin:miter;stroke:#000000;stroke-opacity:1;stroke-miterlimit:4;" d="M -0.000696991 -0.00141153 L -0.000696991 37.545466 L 37.54618 37.545466 L 37.54618 -0.00141153 L -0.000696991 -0.00141153 " transform="matrix(0.75,0,0,0.75,280.309116,223.118246)"/></g><g clip-rule="nonzero" clip-path="url(#0e757caff6)"><path style=" stroke:none;fill-rule:nonzero;fill:#000000;fill-opacity:1;" d="M 279.492188 251.285156 L 252.332031 251.285156 C 251.753906 251.285156 251.285156 251.753906 251.285156 252.332031 L 251.285156 279.492188 C 251.285156 280.070312 251.753906 280.535156 252.332031 280.535156 L 279.492188 280.535156 C 280.066406 280.535156 280.535156 280.066406 280.535156 279.492188 L 280.535156 252.332031 C 280.535156 251.753906 280.066406 251.285156 279.492188 251.285156 Z M 279.492188 251.285156 "/></g><g clip-rule="nonzero" clip-path="url(#846b18a187)"><path style="fill:none;stroke-width:22;stroke-linecap:butt;stroke-linejoin:miter;stroke:#000000;stroke-opacity:1;stroke-miterlimit:4;" d="M 0.00199627 0.00200227 L 0.00199627 38.70513 L 38.705124 38.70513 L 38.705124 0.00200227 L 0.00199627 0.00200227 " transform="matrix(0.75,0,0,0.75,251.279753,251.279748)"/></g><g clip-rule="nonzero" clip-path="url(#17d7e978f4)"><path style=" stroke:none;fill-rule:nonzero;fill:#000000;fill-opacity:1;" d="M 335.960938 252.15625 L 309.496094 252.15625 C 308.9375 252.15625 308.480469 252.613281 308.480469 253.175781 L 308.480469 279.640625 C 308.480469 280.203125 308.9375 280.65625 309.496094 280.65625 L 335.960938 280.65625 C 336.523438 280.65625 336.980469 280.199219 336.980469 279.640625 L 336.980469 253.175781 C 336.980469 252.613281 336.523438 252.15625 335.960938 252.15625 Z M 335.960938 252.15625 "/></g><g clip-rule="nonzero" clip-path="url(#a175693c72)"><path style="fill:none;stroke-width:22;stroke-linecap:butt;stroke-linejoin:miter;stroke:#000000;stroke-opacity:1;stroke-miterlimit:4;" d="M -0.00249153 0.00106514 L -0.00249153 37.547943 L 37.544386 37.547943 L 37.544386 0.00106514 L -0.00249153 0.00106514 " transform="matrix(0.75,0,0,0.75,308.470619,252.147639)"/></g><g clip-rule="nonzero" clip-path="url(#58a3e90cbb)"><path style=" stroke:none;fill-rule:nonzero;fill:#000000;fill-opacity:1;" d="M 250.609375 280.316406 L 224.144531 280.316406 C 223.582031 280.316406 223.128906 280.773438 223.128906 281.335938 L 223.128906 307.800781 C 223.128906 308.363281 223.582031 308.816406 224.144531 308.816406 L 250.609375 308.816406 C 251.171875 308.816406 251.628906 308.363281 251.628906 307.800781 L 251.628906 281.335938 C 251.628906 280.773438 251.171875 280.316406 250.609375 280.316406 Z M 250.609375 280.316406 "/></g><g clip-rule="nonzero" clip-path="url(#c4b04e7e21)"><path style="fill:none;stroke-width:22;stroke-linecap:butt;stroke-linejoin:miter;stroke:#000000;stroke-opacity:1;stroke-miterlimit:4;" d="M -0.00143673 -0.000652591 L -0.00143673 37.546225 L 37.545441 37.546225 L 37.545441 -0.000652591 L -0.00143673 -0.000652591 " transform="matrix(0.75,0,0,0.75,223.118265,280.309083)"/></g><g clip-rule="nonzero" clip-path="url(#f1b3a5d6c3)"><path style=" stroke:none;fill-rule:nonzero;fill:#000000;fill-opacity:1;" d="M 307.800781 280.316406 L 281.335938 280.316406 C 280.773438 280.316406 280.316406 280.773438 280.316406 281.335938 L 280.316406 307.800781 C 280.316406 308.363281 280.773438 308.816406 281.335938 308.816406 L 307.800781 308.816406 C 308.363281 308.816406 308.816406 308.363281 308.816406 307.800781 L 308.816406 281.335938 C 308.816406 280.773438 308.363281 280.316406 307.800781 280.316406 Z M 307.800781 280.316406 "/></g><g clip-rule="nonzero" clip-path="url(#8c06946263)"><path style="fill:none;stroke-width:22;stroke-linecap:butt;stroke-linejoin:miter;stroke:#000000;stroke-opacity:1;stroke-miterlimit:4;" d="M -0.000696991 -0.000652591 L -0.000696991 37.546225 L 37.54618 37.546225 L 37.54618 -0.000652591 L -0.000696991 -0.000652591 " transform="matrix(0.75,0,0,0.75,280.309116,280.309083)"/></g><g clip-rule="nonzero" clip-path="url(#4aab1d1784)"><path style=" stroke:none;fill-rule:nonzero;fill:#000000;fill-opacity:1;" d="M 279.492188 308.476562 L 252.332031 308.476562 C 251.753906 308.476562 251.285156 308.945312 251.285156 309.519531 L 251.285156 336.683594 C 251.285156 337.261719 251.753906 337.726562 252.332031 337.726562 L 279.492188 337.726562 C 280.066406 337.726562 280.535156 337.257812 280.535156 336.683594 L 280.535156 309.519531 C 280.535156 308.945312 280.066406 308.476562 279.492188 308.476562 Z M 279.492188 308.476562 "/></g><g clip-rule="nonzero" clip-path="url(#cfea8a2794)"><path style="fill:none;stroke-width:22;stroke-linecap:butt;stroke-linejoin:miter;stroke:#000000;stroke-opacity:1;stroke-miterlimit:4;" d="M 0.00199627 -0.00252393 L 0.00199627 38.700604 L 38.705124 38.700604 L 38.705124 -0.00252393 L 0.00199627 -0.00252393 " transform="matrix(0.75,0,0,0.75,251.279753,308.470643)"/></g><g clip-rule="nonzero" clip-path="url(#ce809e96dd)"><path style=" stroke:none;fill-rule:nonzero;fill:#000000;fill-opacity:1;" d="M 335.960938 309.347656 L 309.496094 309.347656 C 308.9375 309.347656 308.480469 309.804688 308.480469 310.367188 L 308.480469 336.828125 C 308.480469 337.394531 308.9375 337.847656 309.496094 337.847656 L 335.960938 337.847656 C 336.523438 337.847656 336.980469 337.390625 336.980469 336.828125 L 336.980469 310.367188 C 336.980469 309.804688 336.523438 309.347656 335.960938 309.347656 Z M 335.960938 309.347656 "/></g><g clip-rule="nonzero" clip-path="url(#561e407e0c)"><path style="fill:none;stroke-width:22;stroke-linecap:butt;stroke-linejoin:miter;stroke:#000000;stroke-opacity:1;stroke-miterlimit:4;" d="M -0.00249153 0.00182408 L -0.00249153 37.548702 L 37.544386 37.548702 L 37.544386 0.00182408 L -0.00249153 0.00182408 " transform="matrix(0.75,0,0,0.75,308.470619,309.338476)"/></g></g></svg>